<svg viewBox="0 0 281 91" fill="none" xmlns="http://www.w3.org/2000/svg">
<path d="M27.0993 46.5313L12.1202 61.8483V83.3415H0.333313V0.333344H12.1202V46.7784L56.812 0.333344H70.3177L35.2027 37.6376L72.7733 83.3415H59.022L27.0993 46.5313Z" fill="#FF6060"/>
<path d="M158.719 76.6712L163.385 67.7775C168.787 71.4832 177.136 74.2007 185.24 74.2007C195.799 74.2007 199.973 70.9891 199.973 65.5541C199.973 51.4723 160.438 63.5777 160.438 38.6258C160.438 27.2616 170.506 19.8502 186.467 19.8502C194.571 19.8502 203.902 22.0736 209.304 25.5323L204.393 34.426C198.745 30.7203 192.606 29.485 186.467 29.485C176.645 29.485 171.734 33.1908 171.734 38.1317C171.734 52.9546 211.269 40.8493 211.269 65.307C211.269 76.6712 200.955 83.8356 184.257 83.8356C174.189 84.0827 163.876 80.871 158.719 76.6712Z" fill="#FF6060"/>
<path d="M280.762 45.2961V83.3415H269.957V74.9419C266.274 80.624 259.153 83.8356 249.33 83.8356C235.088 83.8356 226.248 76.1771 226.248 65.307C226.248 55.178 232.632 47.0254 251.295 47.0254H269.221V44.802C269.221 35.1671 263.573 29.7321 252.523 29.7321C245.156 29.7321 237.544 32.4496 232.632 36.4024L227.967 27.7557C234.351 22.5677 243.683 19.6031 253.751 19.6031C271.185 19.8501 280.762 28.2498 280.762 45.2961ZM269.466 64.0718V55.178H252.032C240.736 55.178 237.544 59.6249 237.544 64.8129C237.544 70.9891 242.7 74.9419 251.295 74.9419C259.889 75.1889 266.765 71.4832 269.466 64.0718Z" fill="#FF6060"/>
<path d="M122.376 66.7893V83.5886L129.498 79.3887V62.5895L122.376 66.7893Z" fill="#FF6060"/>
<path d="M142.021 46.2843L112.8 29.238L96.5926 19.8502L80.6313 47.7666L80.8768 73.9537L109.853 91L112.8 89.2707V64.5659L125.814 41.5904L139.074 49.2489V73.9537L142.021 72.2244V46.2843Z" fill="#FF6060"/>
</svg>
